<svg xmlns="http://www.w3.org/2000/svg" xmlns:xlink="http://www.w3.org/1999/xlink" width="1056" height="495" version="1.1"><g stroke="gray" stroke-miterlimit="10"><rect width="1056" height="495" x="0" y="0" fill="#000" stroke="none"/><path fill="#fff" fill-opacity=".141" stroke="none" d="M -3127.9 223 L 4203.9 223 L 4203.9 3888.9 L -3127.9 3888.9" paint-order="stroke fill markers"/><rect width="5" height="5" x="455.5" y="420.5" fill="#0F0" stroke="none"/><path fill="none" stroke="gray" stroke-miterlimit="10" d="M 458 423 L 458 223 M 458 423 L 443 423" paint-order="fill stroke markers"/><g><text x="0" y="0" fill="gray" stroke="none" dominant-baseline="central" font-family="Arial" font-size="14" font-style="normal" font-weight="normal" text-anchor="end" text-decoration="normal" transform="translate(443,423) rotate(0,0,0)">0</text></g><path fill="none" stroke="gray" stroke-miterlimit="10" d="M 458 413 L 448 413 M 458 403 L 448 403 M 458 393 L 448 393 M 458 383 L 448 383 M 458 373 L 443 373 M 458 363 L 448 363 M 458 353 L 448 353 M 458 343 L 448 343 M 458 333 L 448 333 M 458 323 L 443 323" paint-order="fill stroke markers"/><g><text x="0" y="0" fill="gray" stroke="none" dominant-baseline="central" font-family="Arial" font-size="14" font-style="normal" font-weight="normal" text-anchor="end" text-decoration="normal" transform="translate(443,323) rotate(0,0,0)">100</text></g><path fill="none" stroke="gray" stroke-miterlimit="10" d="M 458 313 L 448 313 M 458 303 L 448 303 M 458 293 L 448 293 M 458 283 L 448 283 M 458 273 L 443 273 M 458 263 L 448 263 M 458 253 L 448 253 M 458 243 L 448 243 M 458 233 L 448 233 M 458 223 L 443 223" paint-order="fill stroke markers"/><g><text x="0" y="0" fill="gray" stroke="none" dominant-baseline="central" font-family="Arial" font-size="14" font-style="normal" font-weight="normal" text-anchor="end" text-decoration="normal" transform="translate(443,223) rotate(0,0,0)">200</text></g><text x="492.033" y="357.4" fill="#fff" stroke="none" dominant-baseline="text-after-edge" font-family="serif" font-size="24" font-style="normal" font-weight="normal" text-anchor="start" text-decoration="normal">觀察到的像（橘點）</text><text x="678.367" y="87.067" fill="#fff" stroke="none" dominant-baseline="text-after-edge" font-family="serif" font-size="24" font-style="normal" font-weight="normal" text-anchor="start" text-decoration="normal">觀察者</text><text x="472.367" y="437.733" fill="#fff" stroke="none" dominant-baseline="text-after-edge" font-family="serif" font-size="24" font-style="normal" font-weight="normal" text-anchor="start" text-decoration="normal">水中物體（綠點）</text><rect width="5" height="5" x="476.762" y="326.973" fill="#FF8000" fill-opacity="NaN" stroke="none"/><path fill="none" stroke="#00F" stroke-miterlimit="10" stroke-opacity="NaN" d="M 660.8451198358932 92.73524757471056 L 479.2618902499604 329.47304109296" paint-order="fill stroke markers"/><rect width="5" height="5" x="476.165" y="327.752" fill="#FF8000" fill-opacity="NaN" stroke="none"/><path fill="none" stroke="#00F" stroke-miterlimit="10" stroke-opacity="NaN" d="M 656.8293700852432 95.18300288684617 L 478.664645435103 330.2516946062031" paint-order="fill stroke markers"/><rect width="5" height="5" x="475.581" y="328.522" fill="#FF8000" fill-opacity="NaN" stroke="none"/><path fill="none" stroke="#00F" stroke-miterlimit="10" stroke-opacity="NaN" d="M 653.9041320390378 96.25604728142937 L 478.08098393717466 331.0217715391843" paint-order="fill stroke markers"/><rect width="5" height="5" x="475.011" y="329.283" fill="#FF8000" fill-opacity="NaN" stroke="none"/><path fill="none" stroke="#00F" stroke-miterlimit="10" stroke-opacity="NaN" d="M 651.4159641312789 96.78628699845164 L 477.510636490226 331.7833210445108" paint-order="fill stroke markers"/><rect width="5" height="5" x="474.453" y="330.036" fill="#FF8000" fill-opacity="NaN" stroke="none"/><path fill="none" stroke="#00F" stroke-miterlimit="10" stroke-opacity="NaN" d="M 649.1931793889756 96.98798394873026 L 476.95333953738935 332.5363924585749" paint-order="fill stroke markers"/><rect width="5" height="5" x="473.909" y="330.781" fill="#FF8000" fill-opacity="NaN" stroke="none"/><path fill="none" stroke="#00F" stroke-miterlimit="10" stroke-opacity="NaN" d="M 647.1588823396879 96.95498442548126 L 476.40883508909235 333.2810352562744" paint-order="fill stroke markers"/><rect width="5" height="5" x="473.377" y="331.517" fill="#FF8000" fill-opacity="NaN" stroke="none"/><path fill="none" stroke="#00F" stroke-miterlimit="10" stroke-opacity="NaN" d="M 645.2707079503565 96.73757008494486 L 475.87687060769287 334.01729897681395" paint-order="fill stroke markers"/><rect width="5" height="5" x="472.857" y="332.245" fill="#FF8000" fill-opacity="NaN" stroke="none"/><path fill="none" stroke="#00F" stroke-miterlimit="10" stroke-opacity="NaN" d="M 643.502563874411 96.36557853952877 L 475.35719881766926 334.7452332593323" paint-order="fill stroke markers"/><rect width="5" height="5" x="472.35" y="332.965" fill="#FF8000" fill-opacity="NaN" stroke="none"/><path fill="none" stroke="#00F" stroke-miterlimit="10" stroke-opacity="NaN" d="M 641.837316778017 95.85758871869642 L 474.8495776266644 335.46488773330066" paint-order="fill stroke markers"/><rect width="5" height="5" x="471.854" y="333.676" fill="#FF8000" fill-opacity="NaN" stroke="none"/><path fill="none" stroke="#00F" stroke-miterlimit="10" stroke-opacity="NaN" d="M 640.2633514285092 95.2251919142092 L 474.3537699800643 336.17631200693427" paint-order="fill stroke markers"/><rect width="5" height="5" x="471.37" y="334.38" fill="#FF8000" fill-opacity="NaN" stroke="none"/><path fill="none" stroke="#00F" stroke-miterlimit="10" stroke-opacity="NaN" d="M 638.7727859705554 94.47516258079958 L 473.86954369301884 336.8795556968011" paint-order="fill stroke markers"/><rect width="5" height="5" x="470.897" y="335.075" fill="#FF8000" fill-opacity="NaN" stroke="none"/><path fill="none" stroke="#00F" stroke-miterlimit="10" stroke-opacity="NaN" d="M 637.3605033825036 93.61058744020765 L 473.3966714211877 337.5746682639969" paint-order="fill stroke markers"/><rect width="5" height="5" x="470.435" y="335.762" fill="#FF8000" fill-opacity="NaN" stroke="none"/><path fill="none" stroke="#00F" stroke-miterlimit="10" stroke-opacity="NaN" d="M 636.0236424344245 92.63139475209765 L 472.9349304293164 338.2616991494713" paint-order="fill stroke markers"/><rect width="5" height="5" x="469.984" y="336.441" fill="#FF8000" fill-opacity="NaN" stroke="none"/><path fill="none" stroke="#00F" stroke-miterlimit="10" stroke-opacity="NaN" d="M 634.761393137451 91.53446529722788 L 472.48410257637136 338.94069759998746" paint-order="fill stroke markers"/><rect width="5" height="5" x="469.544" y="337.112" fill="#FF8000" fill-opacity="NaN" stroke="none"/><path fill="none" stroke="#00F" stroke-miterlimit="10" stroke-opacity="NaN" d="M 633.5750453746684 90.31336657017273 L 472.04397413361033 339.61171274559433" paint-order="fill stroke markers"/><rect width="5" height="5" x="469.114" y="337.775" fill="#FF8000" fill-opacity="NaN" stroke="none"/><path fill="none" stroke="#00F" stroke-miterlimit="10" stroke-opacity="NaN" d="M 632.4683158179972 88.95763782226736 L 471.61433570782333 340.27479352739425" paint-order="fill stroke markers"/><rect width="5" height="5" x="468.695" y="338.43" fill="#FF8000" fill-opacity="NaN" stroke="none"/><path fill="none" stroke="#00F" stroke-miterlimit="10" stroke-opacity="NaN" d="M 631.4480719476495 87.45139941335432 L 471.1949821327747 340.9299886779286" paint-order="fill stroke markers"/><rect width="5" height="5" x="468.286" y="339.077" fill="#FF8000" fill-opacity="NaN" stroke="none"/><path fill="none" stroke="#00F" stroke-miterlimit="10" stroke-opacity="NaN" d="M 630.5257466253983 85.77075912482012 L 470.78571235588157 341.5773467151237" paint-order="fill stroke markers"/><rect width="5" height="5" x="467.886" y="339.717" fill="#FF8000" fill-opacity="NaN" stroke="none"/><path fill="none" stroke="#00F" stroke-miterlimit="10" stroke-opacity="NaN" d="M 629.7201534345311 83.87876173285878 L 470.38632933678423 342.2169159234567" paint-order="fill stroke markers"/><rect width="5" height="5" x="467.497" y="340.349" fill="#FF8000" fill-opacity="NaN" stroke="none"/><path fill="none" stroke="#00F" stroke-miterlimit="10" stroke-opacity="NaN" d="M 629.063612812095 81.71453635916 L 469.99663996881264 342.8487443038889" paint-order="fill stroke markers"/><rect width="5" height="5" x="467.116" y="340.973" fill="#FF8000" fill-opacity="NaN" stroke="none"/><path fill="none" stroke="#00F" stroke-miterlimit="10" stroke-opacity="NaN" d="M 628.617612644963 79.16579617329565 L 469.6164549496642 343.47287961039336" paint-order="fill stroke markers"/><rect width="5" height="5" x="466.746" y="341.589" fill="#FF8000" fill-opacity="NaN" stroke="none"/><path fill="none" stroke="#00F" stroke-miterlimit="10" stroke-opacity="NaN" d="M 628.5262469477365 75.97570072381494 L 469.24558871777776 344.0893692857949" paint-order="fill stroke markers"/><rect width="5" height="5" x="466.384" y="342.198" fill="#FF8000" fill-opacity="NaN" stroke="none"/><path fill="none" stroke="#00F" stroke-miterlimit="10" stroke-opacity="NaN" d="M 629.3923055803975 71.09271517809658 L 468.88385935861476 344.69826045054367" paint-order="fill stroke markers"/><path fill="transparent" fill-opacity=".1" stroke="none" d="M -3127.9 223 L 4203.9 223 L 4203.9 3888.9 L -3127.9 3888.9" paint-order="stroke fill markers"/><rect width="5" height="5" x="455.5" y="420.5" fill="#0F0" stroke="none"/><text x="492.033" y="357.4" fill="#fff" stroke="none" dominant-baseline="text-after-edge" font-family="serif" font-size="24" font-style="normal" font-weight="normal" text-anchor="start" text-decoration="normal">觀察到的像（橘點）</text><text x="678.367" y="87.067" fill="#fff" stroke="none" dominant-baseline="text-after-edge" font-family="serif" font-size="24" font-style="normal" font-weight="normal" text-anchor="start" text-decoration="normal">觀察者</text><text x="472.367" y="437.733" fill="#fff" stroke="none" dominant-baseline="text-after-edge" font-family="serif" font-size="24" font-style="normal" font-weight="normal" text-anchor="start" text-decoration="normal">水中物體（綠點）</text><path fill="#00f" stroke="none" d="M 668.5 77 A 20 20 0 1 1 668.4999900000008 76.98000000333332" paint-order="stroke fill markers"/><path fill="#00f" stroke="none" d="M 668.5 77 A 20 20 0 1 1 668.4999900000008 76.98000000333332" paint-order="stroke fill markers"/></g></svg>